<svg xmlns="http://www.w3.org/2000/svg" version="1.1" xmlns:xlink="http://www.w3.org/1999/xlink" xmlns:svgjs="http://svgjs.dev/svgjs" width="600" height="600"><svg viewBox="0 0 600 600" width="600" height="600" xmlns="http://www.w3.org/2000/svg" fill-rule="evenodd" clip-rule="evenodd" stroke-linejoin="round" stroke-miterlimit="2"><circle cx="291.335" cy="239.665" r="180.335" transform="translate(-184.657 -98.701) scale(1.66357)"></circle><path d="M250.237 173.781L192.332 426.22c-3.32 13.27-9.954 23.373-19.909 30.31v1.81h86.412v-1.81c-11.16-6.333-15.232-16.437-12.215-30.31l24.43-104.957h78.716l3.618 16.286c3.32 13.27-.752 23.374-12.215 30.31v1.81h86.406v-1.81c-9.95-7.54-16.584-17.643-19.904-30.31l-37.547-163.768c-3.017-13.27 1.206-23.374 12.664-30.31v-1.81h-145.22v1.81c11.464 6.936 15.687 17.04 12.67 30.31zm69.671 19.906l18.547 79.622h-56.548l18.546-79.622h19.455z" fill="#fff" fill-rule="nonzero"></path></svg><style>@media (prefers-color-scheme: light) { :root { filter: none; } }
@media (prefers-color-scheme: dark) { :root { filter: none; } }
</style></svg>