<?xml version="1.0" standalone="no"?>
<!DOCTYPE svg PUBLIC "-//W3C//DTD SVG 20010904//EN"
 "http://www.w3.org/TR/2001/REC-SVG-20010904/DTD/svg10.dtd">
<svg version="1.0" xmlns="http://www.w3.org/2000/svg"
 width="260.000000pt" height="260.000000pt" viewBox="0 0 260.000000 260.000000"
 preserveAspectRatio="xMidYMid meet">
<metadata>
Created by potrace 1.11, written by Peter Selinger 2001-2013
</metadata>
<g transform="translate(0.000000,260.000000) scale(0.100000,-0.100000)"
fill="#000000" stroke="none">
<path d="M1131 2590 c-556 -78 -987 -483 -1107 -1041 -26 -118 -26 -380 0
-498 59 -273 167 -474 360 -667 193 -193 394 -301 667 -360 118 -26 380 -26
498 0 517 111 900 484 1019 990 22 96 26 134 26 281 0 128 -4 191 -18 254 -59
273 -167 474 -360 667 -190 189 -384 296 -646 355 -99 23 -340 33 -439 19z
m471 -607 c143 -40 240 -107 291 -202 79 -145 41 -341 -89 -460 -107 -98 -249
-146 -464 -158 l-120 -6 0 -216 c0 -152 4 -223 13 -240 21 -42 57 -60 135 -67
61 -6 72 -10 72 -25 0 -18 -17 -19 -390 -19 -383 0 -390 0 -390 20 0 14 7 20
23 20 48 0 94 20 108 48 11 22 15 129 17 584 3 558 -1 656 -32 686 -7 7 -35
16 -62 20 -36 5 -50 12 -52 25 -4 18 16 18 430 15 405 -4 438 -5 510 -25z"/>
<path d="M1249 1951 l-24 -19 -3 -368 -3 -367 65 6 c101 9 147 41 185 127 33
74 44 171 38 319 -9 237 -59 321 -191 321 -28 0 -52 -7 -67 -19z"/>
</g>
</svg>
